<svg width="24" height="24" viewBox="0 0 24 24" fill="none" xmlns="http://www.w3.org/2000/svg">
<path d="M6.91957 3C6.38541 2.99999 5.93956 2.99998 5.57533 3.02974C5.19545 3.06078 4.83879 3.12789 4.50153 3.29973C3.98408 3.56338 3.56338 3.98408 3.29973 4.50153C3.12789 4.83879 3.06078 5.19545 3.02974 5.57533C2.99998 5.93956 2.99999 6.38541 3 6.91957V10.25C3 10.6642 3.33579 11 3.75 11H10.25C10.6642 11 11 10.6642 11 10.25V3.75C11 3.33579 10.6642 3 10.25 3H6.91957Z" fill="black"/>
<path d="M19.4985 3.29973C19.1612 3.12789 18.8046 3.06078 18.4247 3.02974C18.0604 2.99998 17.6146 2.99999 17.0804 3H13.75C13.3358 3 13 3.33579 13 3.75V10.25C13 10.6642 13.3358 11 13.75 11H20.25C20.6642 11 21 10.6642 21 10.25V6.91955C21 6.3854 21 5.93956 20.9703 5.57533C20.9392 5.19545 20.8721 4.83879 20.7003 4.50153C20.4366 3.98408 20.0159 3.56338 19.4985 3.29973Z" fill="black"/>
<path d="M3.75 13C3.33579 13 3 13.3358 3 13.75V17.0804C2.99999 17.6146 2.99998 18.0604 3.02974 18.4247C3.06078 18.8046 3.12789 19.1612 3.29973 19.4985C3.56338 20.0159 3.98408 20.4366 4.50153 20.7003C4.83879 20.8721 5.19545 20.9392 5.57533 20.9703C5.93956 21 6.3854 21 6.91955 21H10.25C10.6642 21 11 20.6642 11 20.25V13.75C11 13.3358 10.6642 13 10.25 13H3.75Z" fill="black"/>
<path d="M13.75 13C13.3358 13 13 13.3358 13 13.75V20.25C13 20.6642 13.3358 21 13.75 21H17.0805C17.6146 21 18.0604 21 18.4247 20.9703C18.8046 20.9392 19.1612 20.8721 19.4985 20.7003C20.0159 20.4366 20.4366 20.0159 20.7003 19.4985C20.8721 19.1612 20.9392 18.8046 20.9703 18.4247C21 18.0604 21 17.6146 21 17.0805V13.75C21 13.3358 20.6642 13 20.25 13H13.75Z" fill="black"/>
</svg>
